<?xml version="1.0" encoding="UTF-8"?>
<svg id="Layer_1" data-name="Layer 1" xmlns="http://www.w3.org/2000/svg" viewBox="0 0 305.2 200.63">
  <defs>
    <style>
      .cls-1 {
        fill: #f36c21;
      }
    </style>
  </defs>
  <path d="M8.58,156.59l29.66-47.45c1.1-.63,6.06-.57,7.5-.22.92.22.76,2.16,1.68,2.38,9.32,2.26,9.29-4.36,13.86-10.04,1.42-1.76,10.86-12.99,11.72-13.19,3.71-.86,2.47,2.42,5.33,3.19,7.13,1.91,7.54-5.25,11.36-9.74,4.01-4.72,13.17-11.14,16.05-15.7,2.64-4.18,2.5-8.52,4.76-12.46,2.76-4.79,15.54-10.82,19.08-14.54s7.39-12.6,10.97-16.51c4.45-4.87,6.51,1.87,9.4,4.2,15.46,12.48,8.65,13.06,16.26,28.43,2.62,5.3,5.67,7.1,9.11,10.83,1.09,1.18,1.97,4.54,2.66,4.95,2.47,1.46,9.03-1.4,11.41,1.47l19,35.49c1.43,1.26,6.42-5.53,7.83-6.85.8-.76,2.76-.69,3.77-1.71,2.95-2.97-.15-7.82,8.27-3.29,1.06.57,9.28,7.38,9.94,8.33,1.55,2.26,4.18,10.38,4.67,10.7,1.34.86,7.72-.32,10.5,1.75,1.19.89,1.63,3.66,2.77,4.84,7.72,7.95,14.16,16.19,22.11,23.88l7.34,11.28c-11.93,2.25-11.78-5.16-17.15-11.28-2.27-2.59-6.54-5.59-8.61-7.99-2.62-3.04-6.19-10.94-9.8-13.13-2.38-1.45-10.13-.25-11.96-2.13-.55-.57-1.5-5.86-2.51-7.9-3.18-6.43-6.3-10-8.48-.66-1.01,4.31.71,5.79,3.86,8.41.77.64,2.65.21,2.98.55.79.81-.27,6.6.59,9.34.28.88,11.84,7.25,13.92,9.29l11.42,15.5c-1.63-.94-3.66-1.46-5.22-2.47-11.39-7.38-13.73-11.98-28.18-15.96-1.03-.28-.88-2.15-1.76-2.34-2.78-.62-6.3.93-8.95-.65-2.42-1.44-17.64-33.74-20.8-39.18-1.85-3.18-4.62-4.12-5.93-6.31-.46-.77-4.15-15.08-5.16-7.12,1.25,4.15-.45,11.15.02,14.58.76,5.53,8.95,12.97,7.97,19.07-3.42-5.38-10.46-13.66-12.33-19.51-1.45-4.54-.65-11.19-2.47-15.9s-14.33-15.81-17.38-23.01c-2.03-4.79-2.55-13.25-4.69-17.39-.51-.98-9.32-8.91-10.88-8.59-1.93.95-1.51,2.68-1.98,4.19-3.2,10.28-4.48,27.38.93,37.06,1.1,1.96,3,1.89,4.18,4.47,4.36,9.56,5.26,24.67,8.45,35.01-10.26-11.46-14.92-33.43-25.21-43.99-.89-.92-6.97-4.98-7.89-3.05-.11,2.69.5,5.64-.25,8.25-1.62,5.69-12.22,7.68-10.49,16.01.24,1.18,2.33,2.52,3.09,4.13,1.87,3.97,6.35,15.8,9.84,17.32,2.17.94,4.95.65,6.65,1.44,1.25.58,7.69,3.53,8.04,3.83.93.78,1.12,4.07,2.23,5.72,7.08,10.53,14.66,20.8,22.56,30.69-2.07.29-3.59-1.38-5.13-2.52-3.07-2.28-8.28-8.84-11.6-10.69-4.42-2.47-14.59-5.18-18.1-8.85-3.94-4.12-8.75-15.02-13.39-17.85-1.77-1.08-11.81-4.48-12.79-5.61-1.95-2.24.54-8.41-5.68-8.27s-5.74,8.36-9.85,8.54c-4.91.22-10.93-13.91-15.16-6.5-.89,1.56-4.08,10.3-4.01,11.98.12,2.74,1.87,4.3,2.23,6.31.25,1.4-1.02,3.13-.93,4.55.04.63,8.17,6.59,6.16,10.58-1.9.47-.71-1.77-2.09-2.41-1.6-.74-3.77-.57-5.55-1.34-1.23-.53-.91-3.8-6.22-2.33-.57.16-2.27,4.43-6.98,2.42-.38,3.77,2.25,7.7,1.05,11.44-.15.45-4.69,4.71-6.15,7.3-1.33,2.36-1.88,6.95-2.25,6.95H8.58Z"/>
  <g>
    <path class="cls-1" d="M83.66,57.48l30.24.02v9.18s-18.72-.01-18.72-.01v4.08s18.71.01,18.71.01v9.18s-18.72-.01-18.72-.01v4.08s18.71.01,18.71.01v9.18s-30.25-.02-30.25-.02l.02-35.7Z"/>
    <path class="cls-1" d="M129.61,57.5l-.02,35.7h-11.22s.02-35.7.02-35.7h11.22Z"/>
    <path class="cls-1" d="M145.73,57.51l-.02,35.7h-11.22s.02-35.7.02-35.7h11.22Z"/>
    <path class="cls-1" d="M164.83,93.98c-10.45,0-15.55-6.79-15.54-15.15,0-8.36,5.31-15.19,15.26-15.19,9.74,0,14.84,5.82,14.83,15.87v.97h-19.79c.25,3.15,2.34,4.48,4.99,4.48,2.19,0,3.52-.86,4.29-2.19h10.35c-.72,4.8-4.8,11.22-14.39,11.22ZM159.69,76.49h9.84c-.51-2.85-2.45-3.97-4.94-3.98-2.5,0-4.39,1.12-4.9,3.98Z"/>
    <path class="cls-1" d="M182.95,64.42h11.22s0,4.09,0,4.09h.41c1.12-2.91,4.34-4.84,8.11-4.84,5.86,0,9.99,3.17,9.99,12.3v17.29s-11.23,0-11.23,0v-14.74c0-3.31-1.37-4.85-3.61-4.85-2.14,0-3.67,1.53-3.67,4.79v14.79s-11.23,0-11.23,0l.02-28.81Z"/>
    <path class="cls-1" d="M22.91,118.64h11.73s0,13.26,0,13.26h12.39s0-13.25,0-13.25h11.73s-.02,35.7-.02,35.7h-11.73s0-13.27,0-13.27h-12.39s0,13.25,0,13.25h-11.73s.02-35.7.02-35.7Z"/>
    <path class="cls-1" d="M77.97,155.14c-10.45,0-15.55-6.79-15.54-15.15,0-8.36,5.31-15.19,15.26-15.19,9.74,0,14.84,5.82,14.83,15.87v.97s-19.79-.01-19.79-.01c.25,3.16,2.34,4.49,5,4.49,2.19,0,3.52-.86,4.28-2.19h10.35c-.72,4.8-4.8,11.22-14.39,11.22ZM72.83,137.64h9.84c-.51-2.85-2.45-3.97-4.94-3.98-2.5,0-4.39,1.12-4.9,3.98Z"/>
    <path class="cls-1" d="M96.09,125.57h11.22s0,14.74,0,14.74c0,3.31,1.37,4.85,3.52,4.85,2.04,0,3.57-1.53,3.57-4.79v-14.79s11.23,0,11.23,0l-.02,28.81h-11.01s0-4.54,0-4.54h-.41c-1.12,3.42-4.34,5.3-8.16,5.3-5.81,0-9.94-3.63-9.94-12.4v-17.19Z"/>
    <path class="cls-1" d="M130.52,125.59h11.22s0,4.09,0,4.09h.41c1.12-2.91,4.34-4.84,8.11-4.84,5.86,0,9.99,3.17,9.99,12.3v17.29s-11.23,0-11.23,0v-14.74c.01-3.31-1.36-4.85-3.61-4.85-2.14,0-3.67,1.53-3.67,4.79v14.79s-11.23,0-11.23,0l.02-28.81Z"/>
    <path class="cls-1" d="M165.15,125.61h11.27s-.02,28.82-.02,28.82h-11.27s.02-28.82.02-28.82ZM165.15,119.49h11.27s0,3.12,0,3.12h-11.27s0-3.12,0-3.12Z"/>
    <path class="cls-1" d="M194.86,147.5c1.02,0,1.63-.56,1.63-1.38,0-1.02-.66-1.43-1.63-1.43h-5.15c-6.02,0-9.94-3.12-9.94-9.03,0-7.09,5.05-10.04,10.36-10.04h15.09s0,6.89,0,6.89h-13.62c-.97,0-1.63.5-1.63,1.32,0,.97.66,1.53,1.63,1.53h6.12c6.07,0,9.69,3.94,9.68,9.14,0,6.32-3.78,9.94-10.46,9.94h-16.22s0-6.94,0-6.94h14.13Z"/>
    <path class="cls-1" d="M224.76,134.87c-2.8,0-4.95,1.83-4.95,5.15,0,3.42,2.14,5.25,4.94,5.26,2.35,0,4.39-1.22,4.85-3.46h10.45c-.31,7.25-6.38,13.41-15.2,13.41-10,0-15.4-6.33-15.39-15.21,0-9.13,6.43-15.14,15.36-15.14,8.36,0,15.19,5.01,15.24,13.93h-10.4c-.51-2.56-2.55-3.93-4.89-3.94Z"/>
    <path class="cls-1" d="M243.64,118.77h11.22s0,10.97,0,10.97h.41c1.12-2.91,4.34-4.84,8.11-4.84,5.86,0,9.99,3.17,9.99,12.3v17.29s-11.23,0-11.23,0v-14.74c.01-3.31-1.37-4.85-3.61-4.85-2.14,0-3.67,1.53-3.67,4.79v14.79s-11.23,0-11.23,0l.02-35.7Z"/>
  </g>
  <path d="M215.36,155c.58-1.34,50.99,1.77,54.18-2.45,12.54-2.13,4.24-9.49,18.14-10.42,7.4-.5,10.18-.28,10.13,5.2-.08,9.15-13.78,17.15-26.43,19.35-83.91,2.52-168.6.27-252.79.98-8.41-.3-14.23-6.52-9.77-11.42.29-.32,6.62-1.35,7.08-1.35l121.13.07M263.15,161.52l-243.58-.14c-.42,1.71,1.82,2.34,3.95,2.27,81.58-.71,163.51,1.45,244.87-.96,6.05-1.44,15.5-5.72,16.85-9.91.29-.9,1.16-2.99-1.44-2.44-1.28.27-1,2.38-1.81,3.14-4.38,4.11-10.86,7.39-18.84,8.02Z"/>
</svg>